<svg xml:space="preserve" viewBox="19.36 42.47872340425532 1692.064 320.52127659574467" y="0px" x="0px" xmlns:xlink="http://www.w3.org/1999/xlink" xmlns="http://www.w3.org/2000/svg" id="Layer_1" version="1.0" style="max-height: 500px" width="1692.064" height="320.52127659574467">
<g>
	<path d="M48.2,102.1h56.1v23.7H75.8v39h21.7v24.1H75.8v47h28.8v23.5H48.2V102.1z" fill="#4D6022"/>
	<path d="M113.2,147.2h24.7v8.9c6-7.4,13-11.1,21.1-11.1c3.6,0,6.7,1.1,9.3,3.4c2.6,2.3,4.6,5.6,5.9,10&#10;&#9;&#9;c6.3-8.9,13.8-13.4,22.7-13.4c5.2,0,9.4,2.4,12.6,7.3c3.1,4.9,4.7,11.5,4.7,19.9v87.2h-24.7v-83.9c0-3-0.4-5.2-1.2-6.6&#10;&#9;&#9;c-0.8-1.4-2-2.1-3.8-2.1c-1.1,0-2.5,0.4-4.2,1.1c-1.6,0.7-3.1,1.7-4.5,3v1.4v87.2h-24.4v-83.9c0-5.8-1.7-8.7-5.1-8.7&#10;&#9;&#9;c-2.7,0-5.6,1.4-8.6,4.1v88.6h-24.7V147.2z" fill="#4D6022"/>
	<path d="M226.6,147.2h25.1v8.2c2.9-3.2,6-5.7,9.3-7.5c3.3-1.7,6.5-2.6,9.6-2.6c6.6,0,11.5,3,14.7,9.1&#10;&#9;&#9;c3.2,6.1,4.9,14.1,4.9,23.9v48.4c0,10.8-1.7,19.2-5.1,25.4s-8.2,9.3-14.3,9.3c-6.3,0-12.6-3.5-19-10.5v45.5h-25.1V147.2z&#10;&#9;&#9; M263.4,237.5c1.1-2.3,1.6-5.4,1.6-9.1v-52.4c0-3.2-0.5-6-1.5-8.3c-1-2.3-2.6-3.4-4.6-3.4c-2.2,0-4.5,1.3-7.1,3.9v69.9&#10;&#9;&#9;c2.4,1.9,4.6,2.9,6.6,2.9C260.7,241,262.3,239.8,263.4,237.5z" fill="#4D6022"/>
	<path d="M303,102.1h25v157.4h-25V102.1z" fill="#4D6022"/>
	<path d="M347.9,252.1c-5.5-6.2-8.2-15.3-8.2-27.4v-42.7c0-12,2.7-21.2,8.2-27.4c5.5-6.2,13.1-9.3,22.9-9.3&#10;&#9;&#9;c9.8,0,17.4,3.1,23,9.4c5.6,6.3,8.3,15.4,8.3,27.3v42.7c0,11.9-2.8,21-8.3,27.3c-5.6,6.3-13.2,9.4-23,9.4&#10;&#9;&#9;C361,261.4,353.4,258.3,347.9,252.1z M375.9,237c0.9-2.3,1.4-5.7,1.4-10.2v-47c0-4.5-0.5-7.9-1.4-10.2c-0.9-2.3-2.6-3.4-5.1-3.4&#10;&#9;&#9;c-2.3,0-3.9,1.2-4.9,3.5c-1,2.3-1.5,5.7-1.5,10.1v47c0,4.5,0.5,7.9,1.5,10.2c1,2.3,2.6,3.4,4.9,3.4&#10;&#9;&#9;C373.3,240.4,375,239.3,375.9,237z" fill="#4D6022"/>
	<path d="M415.7,270.1c5.4,0,9.3-0.7,11.4-2s3.1-4.2,2.8-8.6c-0.1-1.8-1.1-7.7-3.1-17.7l-6.5-28.9&#10;&#9;&#9;c-9.4-41.7-14.2-63.6-14.5-65.7h23.6l11.3,64.9l8.5-64.9h23.7l-21.1,118.5c-3.2,17.9-14,26.7-32.5,26.4h-3.5V270.1z" fill="#4D6022"/>
	<path d="M479.7,147.2h24.7v8.9c6-7.4,13-11.1,21.1-11.1c3.6,0,6.7,1.1,9.3,3.4c2.6,2.3,4.6,5.6,5.9,10&#10;&#9;&#9;c6.3-8.9,13.8-13.4,22.7-13.4c5.2,0,9.4,2.4,12.6,7.3c3.1,4.9,4.7,11.5,4.7,19.9v87.2H556v-83.9c0-3-0.4-5.2-1.2-6.6&#10;&#9;&#9;c-0.8-1.4-2-2.1-3.8-2.1c-1.1,0-2.5,0.4-4.2,1.1c-1.6,0.7-3.1,1.7-4.5,3v1.4v87.2H518v-83.9c0-5.8-1.7-8.7-5.1-8.7&#10;&#9;&#9;c-2.7,0-5.6,1.4-8.6,4.1v88.6h-24.7V147.2z" fill="#4D6022"/>
	<path d="M599.5,251.6c-5.4-6.5-8.2-15.8-8.2-27.7v-41.2c0-11.9,2.7-21.1,8.2-27.7c5.4-6.5,13.1-9.8,22.8-9.8&#10;&#9;&#9;c9.9,0,17.3,3.2,22.2,9.5c4.9,6.3,7.4,15.7,7.4,28v22.5h-35.8V225c0,9.2,2,13.8,6,13.8c4.4,0,6.6-3.6,6.6-10.9v-11.8h23.1V227&#10;&#9;&#9;c0,11.3-2.6,19.8-7.8,25.6c-5.2,5.8-12.5,8.7-21.8,8.7C612.5,261.4,604.9,258.1,599.5,251.6z M628.7,190.5v-11.3&#10;&#9;&#9;c0-4.1-0.6-7.1-1.8-8.8c-1.2-1.7-2.8-2.6-4.9-2.6c-2,0-3.4,1-4.5,2.9c-1,1.9-1.5,5.4-1.5,10.3v9.5H628.7z" fill="#4D6022"/>
	<path d="M663,147.2h25.1v11.3c7-8.8,14.1-13.2,21.4-13.2c5.3,0,9.4,2.4,12.3,7.3c2.8,4.9,4.2,11.2,4.2,18.9v88h-25&#10;&#9;&#9;v-83.5c0-2.8-0.4-5-1.2-6.3s-2.1-2-3.9-2c-2.4,0.3-5,1.6-7.9,4.1v87.8H663V147.2z" fill="#4D6022"/>
	<path d="M749.3,254.8c-3.3-3.6-5.5-8.3-6.6-14.1c-1.1-5.8-1.6-12.7-1.6-20.9v-51.9h-8.6v-20.8h8.6V113h25.4v34.2&#10;&#9;&#9;h12.6v20.8h-12.6v57.9c0,6.1,2.9,9.1,8.6,9.1c1.3,0,2.6-0.1,3.8-0.4c1.2-0.3,1.9-0.4,2.2-0.4V259c-5.2,1.2-9.8,1.7-13.7,1.7&#10;&#9;&#9;l-3.9-0.2C757.4,260.3,752.6,258.4,749.3,254.8z" fill="#4D6022"/>
	<path d="M828.7,102.1h27.6v133.8H885v23.5h-56.3V102.1z" fill="#4D6022"/>
	<path d="M900.2,257.4c-3.1-2.7-5.5-6.1-7.1-10.3c-1.6-4.2-2.4-8.6-2.4-13.1c0-8.2,1.6-14.9,4.7-20.3&#10;&#9;&#9;c3.1-5.4,6.8-9.5,11-12.4c4.2-2.9,9.6-5.9,16-9l4.9-2.3v-11.3c0-3.2-0.4-5.7-1.2-7.4c-0.8-1.7-2.1-2.5-4.1-2.5&#10;&#9;&#9;c-2,0-3.3,0.8-4.2,2.3c-0.8,1.6-1.3,3.8-1.4,6.6l-0.6,8.2l-23.4-1.2l0.2-3.7c0.7-12.3,3.7-21.3,9-27.1c5.3-5.8,12.9-8.6,22.7-8.6&#10;&#9;&#9;c8.7,0,15.4,3.1,20,9.2c4.6,6.2,6.9,14.3,6.9,24.6v52.5c0,9.6,0.5,18.9,1.5,28h-22.5c-0.9-8.7-1.6-14-2-15.9&#10;&#9;&#9;c-1.2,5.2-3.3,9.5-6.2,12.8c-2.9,3.4-6.5,5.1-10.9,5.1C907,261.4,903.3,260,900.2,257.4z M924.2,238.4c1.2-1.1,2.3-2.4,3.2-4v-30.7&#10;&#9;&#9;c-4.1,2.6-7.5,6.2-10.1,10.8c-2.6,4.6-3.9,9-3.9,13.3c0,3.8,0.7,6.7,2,8.9c1.3,2.2,3,3.3,4.9,3.3&#10;&#9;&#9;C921.6,240,922.9,239.5,924.2,238.4z" fill="#4D6022"/>
	<path d="M959.2,147.2h21l6.5,63.7l6.9-63.7h18.2l6,65.3l7.6-65.3h19.4l-13.3,112.3h-21.6l-7.7-63.1l-8.6,63.1h-21.3&#10;&#9;&#9;L959.2,147.2z" fill="#4D6022"/>
	<path d="M1055.7,270.1c5.4,0,9.3-0.7,11.4-2s3.1-4.2,2.8-8.6c-0.1-1.8-1.1-7.7-3.1-17.7l-6.5-28.9&#10;&#9;&#9;c-9.4-41.7-14.2-63.6-14.5-65.7h23.6l11.3,64.9l8.5-64.9h23.7l-21.1,118.5c-3.2,17.9-14,26.7-32.5,26.4h-3.5V270.1z" fill="#4D6022"/>
	<path d="M1126,251.6c-5.5-6.5-8.2-15.8-8.2-27.7v-41.2c0-11.9,2.7-21.1,8.2-27.7c5.4-6.5,13.1-9.8,22.8-9.8&#10;&#9;&#9;c9.9,0,17.3,3.2,22.2,9.5c4.9,6.3,7.4,15.7,7.4,28v22.5h-35.8V225c0,9.2,2,13.8,6,13.8c4.4,0,6.6-3.6,6.6-10.9v-11.8h23.1V227&#10;&#9;&#9;c0,11.3-2.6,19.8-7.8,25.6c-5.2,5.8-12.5,8.7-21.8,8.7C1139,261.4,1131.4,258.1,1126,251.6z M1155.3,190.5v-11.3&#10;&#9;&#9;c0-4.1-0.6-7.1-1.8-8.8c-1.2-1.7-2.8-2.6-4.9-2.6c-2,0-3.4,1-4.5,2.9c-1,1.9-1.5,5.4-1.5,10.3v9.5H1155.3z" fill="#4D6022"/>
	<path d="M1189.8,147.2h25.1v18.6c5.4-13.3,11.4-20,17.9-20c0.5,0,1.7,0.3,3.5,0.8v27.6c-0.4-0.1-0.9-0.3-1.5-0.4&#10;&#9;&#9;c-0.6-0.1-1.4-0.2-2.3-0.2c-3.7,0.4-7,1.7-9.8,4c-2.8,2.3-5.4,5.6-7.8,10v71.9h-25.1V147.2z" fill="#4D6022"/>
	<path d="M1251.4,254.7c-5-4.5-9-11.6-12.1-21.5l17.1-9.5c1.6,5.2,3.6,9.2,5.8,12c2.2,2.9,4.6,4.3,7.2,4.3&#10;&#9;&#9;c2,0,3.4-0.7,4.5-2c1-1.4,1.5-3.2,1.5-5.5c-0.1-2.2-1.1-4.5-2.9-6.9c-1.8-2.4-5-5.9-9.4-10.4l-6.5-6.8c-5.3-5.7-9.2-10.9-11.6-15.5&#10;&#9;&#9;c-2.4-4.7-3.6-10.2-3.6-16.7c0-6,1.3-11.3,3.8-15.9c2.5-4.7,5.9-8.3,10.1-11c4.2-2.7,8.7-4,13.6-4c7.3,0,13.4,2.5,18.3,7.5&#10;&#9;&#9;c4.9,5,8.4,12.1,10.4,21.5l-16.2,9.3c-1-4.1-2.6-7.9-4.8-11.2c-2.2-3.3-4.5-5-7.1-5c-1.6,0-3,0.6-3.9,1.7c-1,1.2-1.5,2.7-1.5,4.7&#10;&#9;&#9;c0,2.3,0.9,4.8,2.9,7.4c1.9,2.6,5.1,6.2,9.6,10.9l6.3,7c3.5,3.9,6.3,7.2,8.4,9.9c2.1,2.7,3.9,6,5.4,9.7c1.5,3.8,2.2,7.8,2.2,12.2&#10;&#9;&#9;c0,6.3-1.3,11.8-3.9,16.4c-2.6,4.6-6.1,8.1-10.5,10.5c-4.4,2.4-9.1,3.6-14.1,3.6C1262.7,261.4,1256.4,259.1,1251.4,254.7z" fill="#4D6022"/>
	<path d="M1351.2,247.6c-5.2-9.5-7.9-22.9-7.9-40.2v-52.8c0-17.7,2.9-31.3,8.6-40.6c5.7-9.3,15.3-14,28.9-14&#10;&#9;&#9;c13.1,0,22.4,4,28.1,12c5.7,8,8.5,19.4,8.5,34v10.1h-27v-12.8c0-6.2-0.6-10.9-1.7-14.1c-1.1-3.2-3.7-4.8-7.6-4.8&#10;&#9;&#9;c-4,0-6.6,1.7-7.8,5.2c-1.2,3.5-1.8,8.4-1.8,14.6v72.8c0,6.2,0.7,11.1,2.2,14.7c1.5,3.6,4.2,5.3,8.1,5.3c7.2,0,10.8-6.8,10.8-20.4&#10;&#9;&#9;v-18.5h-11.3v-20.4h36.1v81.6h-18.2l-1.5-13c-3.9,10.2-10.6,15.3-20.2,15.3C1365.3,261.8,1356.5,257,1351.2,247.6z" fill="#4D6022"/>
	<path d="M1431.1,147.2h25.1v18.6c5.4-13.3,11.4-20,17.9-20c0.5,0,1.7,0.3,3.5,0.8v27.6c-0.4-0.1-0.9-0.3-1.5-0.4&#10;&#9;&#9;c-0.6-0.1-1.4-0.2-2.3-0.2c-3.7,0.4-7,1.7-9.8,4c-2.8,2.3-5.4,5.6-7.8,10v71.9h-25.1V147.2z" fill="#4D6022"/>
	<path d="M1491.8,252.1c-5.5-6.2-8.2-15.3-8.2-27.4v-42.7c0-12,2.7-21.2,8.2-27.4c5.5-6.2,13.1-9.3,22.9-9.3&#10;&#9;&#9;c9.8,0,17.4,3.1,23,9.4c5.5,6.3,8.3,15.4,8.3,27.3v42.7c0,11.9-2.8,21-8.3,27.3c-5.6,6.3-13.2,9.4-23,9.4&#10;&#9;&#9;C1504.9,261.4,1497.3,258.3,1491.8,252.1z M1519.8,237c0.9-2.3,1.4-5.7,1.4-10.2v-47c0-4.5-0.5-7.9-1.4-10.2&#10;&#9;&#9;c-0.9-2.3-2.6-3.4-5.1-3.4c-2.3,0-3.9,1.2-4.9,3.5c-1,2.3-1.5,5.7-1.5,10.1v47c0,4.5,0.5,7.9,1.5,10.2c1,2.3,2.6,3.4,4.9,3.4&#10;&#9;&#9;C1517.1,240.4,1518.8,239.3,1519.8,237z" fill="#4D6022"/>
	<path d="M1560.6,254.1c-2.9-4.9-4.3-11.2-4.3-18.9v-88h25.1v84.3c0,5.7,1.6,8.5,4.9,8.5c1.6,0,4.2-1.2,7.7-3.5&#10;&#9;&#9;v-89.4h25v112.3h-25v-10.3c-7,8.2-14,12.2-21.1,12.2C1567.6,261.4,1563.5,258.9,1560.6,254.1z" fill="#4D6022"/>
	<path d="M1632.3,147.2h25.1v8.2c2.9-3.2,6-5.7,9.3-7.5c3.3-1.7,6.5-2.6,9.6-2.6c6.6,0,11.5,3,14.7,9.1&#10;&#9;&#9;c3.2,6.1,4.9,14.1,4.9,23.9v48.4c0,10.8-1.7,19.2-5.1,25.4c-3.4,6.2-8.2,9.3-14.3,9.3c-6.3,0-12.6-3.5-19-10.5v45.5h-25.1V147.2z&#10;&#9;&#9; M1669.1,237.5c1.1-2.3,1.6-5.4,1.6-9.1v-52.4c0-3.2-0.5-6-1.5-8.3c-1-2.3-2.6-3.4-4.6-3.4c-2.2,0-4.5,1.3-7.1,3.9v69.9&#10;&#9;&#9;c2.4,1.9,4.6,2.9,6.6,2.9C1666.3,241,1668,239.8,1669.1,237.5z" fill="#4D6022"/>
</g>
<rect height="30" width="1665" fill="#605422" y="58" x="34"/>
<rect height="30" width="1122" fill="#605422" y="306" x="34"/>
<g>
	<path d="M1174.8,276.5h8.8l4.1,36.8l0.5,8.6h0.9l0.9-9.7l6.6-35.7h7.4l6.3,35.7l0.7,9.7h0.9l0.4-8.6l3.7-36.8h8.9&#10;&#9;&#9;l-8.5,60.9h-9.4l-5-29.3l-1.6-12.7h-0.7l-1.5,12.7l-5.3,29.3h-9.3L1174.8,276.5z" fill="#4D6022"/>
	<path d="M1246.3,337.9c-2.1,0-4-0.4-5.6-1.2s-3-2-4.1-3.7c-1.1-1.7-2-3.8-2.5-6.4c-0.6-2.6-0.9-5.7-0.9-9.4V308&#10;&#9;&#9;c0-3.1,0.2-5.8,0.7-8c0.5-2.2,1.1-4.1,1.8-5.6c0.7-1.5,1.6-2.7,2.6-3.6c1-0.9,2-1.6,3-2c1-0.5,2.1-0.8,3.1-0.9c1-0.1,2-0.2,2.9-0.2&#10;&#9;&#9;c1.6,0,3.2,0.2,4.7,0.7c1.5,0.5,2.8,1.3,4,2.5c1.1,1.2,2,2.8,2.7,4.7c0.7,2,1,4.4,1,7.4c0,1,0,2-0.1,3c-0.1,1-0.1,2-0.2,3&#10;&#9;&#9;c-0.1,1-0.2,1.9-0.4,2.9s-0.3,1.8-0.5,2.6h-16.3v5c0,2.1,0.1,3.9,0.2,5.4c0.2,1.5,0.4,2.6,0.8,3.5c0.4,0.9,0.9,1.5,1.6,1.9&#10;&#9;&#9;c0.7,0.4,1.5,0.6,2.5,0.6c0.5,0,1.1-0.1,1.6-0.3c0.5-0.2,1-0.6,1.4-1.1c0.4-0.5,0.7-1.2,0.9-2.1c0.2-0.9,0.4-1.9,0.4-3.2v-1.5h7.5&#10;&#9;&#9;v1.9c0,4.7-1.1,8.1-3.3,10.2C1253.8,336.8,1250.5,337.9,1246.3,337.9z M1251.3,308.5c0-0.3,0-0.6,0.1-1.1c0-0.4,0-0.9,0.1-1.4&#10;&#9;&#9;c0-0.5,0-0.9,0-1.4c0-0.5,0-0.9,0-1.2c0-3.2-0.4-5.6-1.1-7c-0.8-1.4-1.9-2.1-3.4-2.1c-0.8,0-1.5,0.2-2.1,0.6&#10;&#9;&#9;c-0.6,0.4-1.1,1-1.5,1.9c-0.4,0.9-0.7,2-0.9,3.4c-0.2,1.4-0.3,3.2-0.3,5.3v3H1251.3z" fill="#4D6022"/>
	<path d="M1287,276.5h8.8l4.1,36.8l0.5,8.6h0.9l0.9-9.7l6.6-35.7h7.4l6.3,35.7l0.7,9.7h0.9l0.4-8.6l3.7-36.8h8.9&#10;&#9;&#9;l-8.5,60.9h-9.4l-5-29.3l-1.6-12.7h-0.7l-1.5,12.7l-5.3,29.3h-9.3L1287,276.5z" fill="#4D6022"/>
	<path d="M1351.5,281.3c-1.7,0-3-0.5-3.9-1.5c-1-1-1.4-2.5-1.4-4.4c0-1.1,0.1-2,0.4-2.7c0.2-0.7,0.6-1.3,1.1-1.7&#10;&#9;&#9;c0.5-0.4,1-0.8,1.7-1c0.7-0.2,1.4-0.3,2.3-0.3c1.8,0,3.1,0.5,4.1,1.4c0.9,0.9,1.4,2.4,1.4,4.3c0,1.9-0.5,3.3-1.4,4.3&#10;&#9;&#9;C1354.6,280.8,1353.2,281.3,1351.5,281.3z M1346.8,288.3h9v49.1h-9V288.3z" fill="#4D6022"/>
	<path d="M1368.9,288.3h7l0.8,5.2v0c0.7-1.1,1.5-2,2.3-2.8c0.8-0.7,1.7-1.3,2.5-1.8c0.9-0.5,1.8-0.8,2.7-1&#10;&#9;&#9;c0.9-0.2,1.8-0.3,2.7-0.3c2.9,0,5.1,1,6.6,3c1.6,2,2.3,5,2.3,9v37.6h-9v-37.3c0-2.2-0.3-3.7-1-4.5c-0.7-0.8-1.6-1.3-2.9-1.3&#10;&#9;&#9;c-0.9,0-1.8,0.3-2.7,0.9c-0.9,0.6-1.7,1.4-2.4,2.5v39.7h-9V288.3z" fill="#4D6022"/>
	<path d="M1441.8,337.9c-1,0-2-0.1-3.1-0.2c-1.1-0.2-2.2-0.5-3.3-1c-1.1-0.5-2.2-1.2-3.2-2.1c-1-0.9-1.9-2.1-2.7-3.6&#10;&#9;&#9;s-1.4-3.3-1.9-5.5c-0.5-2.2-0.7-4.8-0.7-7.9V296c0-3.1,0.2-5.7,0.7-7.9c0.5-2.2,1.1-4,1.9-5.5c0.8-1.5,1.7-2.7,2.7-3.5&#10;&#9;&#9;c1-0.9,2.1-1.6,3.2-2c1.1-0.5,2.2-0.8,3.3-0.9s2.1-0.2,3-0.2c2.4,0,4.5,0.3,6.1,1c1.6,0.7,2.9,1.6,3.9,2.8c1,1.2,1.7,2.5,2.1,4.1&#10;&#9;&#9;s0.6,3.2,0.6,5c0,1.3-0.1,2.5-0.2,3.6c-0.1,1.1-0.3,2.3-0.6,3.7h-7.5V293c0-3.4-0.4-5.9-1.1-7.5c-0.7-1.7-1.8-2.5-3.2-2.5&#10;&#9;&#9;c-0.9,0-1.6,0.2-2.2,0.5c-0.6,0.3-1.2,0.9-1.6,1.7c-0.4,0.8-0.8,1.8-1,3.2c-0.2,1.3-0.3,2.9-0.3,4.9V321c0,1.9,0.1,3.5,0.3,4.7&#10;&#9;&#9;c0.2,1.3,0.5,2.3,0.9,3c0.4,0.8,0.9,1.3,1.6,1.6c0.7,0.3,1.4,0.5,2.4,0.5c0.6,0,1.2-0.1,1.7-0.4c0.5-0.3,1-0.7,1.4-1.3&#10;&#9;&#9;c0.4-0.6,0.7-1.3,1-2.2c0.2-0.9,0.4-1.9,0.4-3.2v-6h8.4v5.6c0,4.9-1.1,8.5-3.4,10.8C1449.2,336.7,1446,337.9,1441.8,337.9z" fill="#4D6022"/>
	<path d="M1471.9,337.9c-1.5,0-2.9-0.3-4-0.9c-1.2-0.6-2.2-1.4-3-2.5c-0.8-1-1.4-2.3-1.8-3.7c-0.4-1.4-0.6-3-0.6-4.7&#10;&#9;&#9;c0-2,0.2-3.8,0.7-5.4c0.5-1.6,1.2-3,2.2-4.2c1-1.3,2.2-2.4,3.6-3.4c1.4-1,3.1-2,5-2.9c0.9-0.5,1.9-0.9,3-1.4c1.1-0.5,2.1-0.9,3-1.2&#10;&#9;&#9;v-6.5c0-1,0-1.8-0.1-2.7c-0.1-0.8-0.2-1.5-0.5-2.1c-0.3-0.6-0.7-1.1-1.2-1.4c-0.5-0.3-1.3-0.5-2.2-0.5c-0.6,0-1.3,0.1-1.9,0.4&#10;&#9;&#9;c-0.6,0.2-1.1,0.6-1.6,1.2c-0.5,0.6-0.8,1.3-1.1,2.3c-0.3,1-0.4,2.1-0.4,3.5v2.1h-6.9c-0.2-0.9-0.4-1.8-0.5-2.5&#10;&#9;&#9;c-0.1-0.8-0.2-1.5-0.2-2.3c0-1.8,0.3-3.4,0.9-4.8c0.6-1.4,1.5-2.6,2.6-3.5c1.1-1,2.5-1.7,4-2.2c1.6-0.5,3.3-0.7,5.2-0.7&#10;&#9;&#9;c2.4,0,4.5,0.3,6.1,0.8c1.6,0.5,2.9,1.3,3.9,2.4c1,1.1,1.6,2.4,2,4c0.4,1.6,0.6,3.5,0.6,5.7v36.7h-6.7l-0.6-4.2&#10;&#9;&#9;c-1,1.4-2.3,2.5-3.9,3.4S1474,337.9,1471.9,337.9z M1475.9,331c0.8,0,1.5-0.2,2.2-0.6c0.7-0.4,1.3-0.9,1.8-1.4v-15.4&#10;&#9;&#9;c-0.5,0.2-1,0.4-1.6,0.7c-0.6,0.3-1.2,0.6-1.9,1c-0.6,0.4-1.3,0.9-1.9,1.5c-0.6,0.6-1.2,1.2-1.7,2c-0.5,0.8-0.9,1.7-1.2,2.7&#10;&#9;&#9;c-0.3,1-0.4,2.1-0.4,3.3c0,1.9,0.4,3.4,1.1,4.5S1474.3,331,1475.9,331z" fill="#4D6022"/>
	<path d="M1499.8,327.1c0-1.1,0.1-2.1,0.3-3.1s0.4-1.8,0.6-2.4h6.3c0,1.8,0.1,3.3,0.3,4.5c0.2,1.2,0.5,2.2,0.9,2.9&#10;&#9;&#9;c0.4,0.7,0.9,1.2,1.6,1.5c0.7,0.3,1.5,0.5,2.5,0.5c1.4,0,2.3-0.4,3-1.1c0.6-0.8,0.9-1.6,0.9-2.6c0-0.5-0.1-1-0.2-1.5&#10;&#9;&#9;c-0.1-0.5-0.3-1-0.6-1.4c-0.3-0.5-0.6-1-1-1.5s-0.8-1-1.3-1.6l-6.6-7.8c-0.9-1.1-1.7-2.2-2.5-3.3c-0.8-1.1-1.5-2.2-2.1-3.4&#10;&#9;&#9;c-0.6-1.2-1.1-2.4-1.5-3.7s-0.6-2.6-0.6-4.1c0-1.9,0.3-3.6,1-5c0.7-1.4,1.5-2.6,2.6-3.5c1.1-0.9,2.4-1.6,3.8-2.1&#10;&#9;&#9;c1.4-0.5,3-0.7,4.6-0.7c1.8,0,3.4,0.2,4.8,0.6s2.6,1.1,3.7,1.9c1,0.9,1.8,1.9,2.4,3.2c0.5,1.3,0.8,2.8,0.8,4.4&#10;&#9;&#9;c0,1.1-0.1,2.2-0.3,3.3c-0.2,1.1-0.4,2-0.6,2.7h-6.2c0-1.6-0.1-3-0.2-4.2c-0.1-1.2-0.3-2.2-0.7-3c-0.3-0.8-0.8-1.4-1.3-1.8&#10;&#9;&#9;c-0.6-0.4-1.3-0.6-2.2-0.6c-0.8,0-1.4,0.1-2,0.4c-0.5,0.2-0.9,0.6-1.3,1c-0.3,0.4-0.5,0.9-0.7,1.4c-0.1,0.5-0.2,1-0.2,1.5&#10;&#9;&#9;c0,1.1,0.3,2.2,0.8,3.2c0.5,1,1.3,2,2.2,3.2l7.2,8.4c0.5,0.6,1.1,1.4,1.8,2.3c0.7,0.9,1.3,1.9,2,3c0.6,1.1,1.1,2.3,1.6,3.6&#10;&#9;&#9;c0.4,1.3,0.6,2.7,0.6,4.1c0,1.7-0.3,3.3-0.8,4.7c-0.5,1.4-1.4,2.6-2.4,3.6c-1.1,1-2.4,1.8-3.9,2.3s-3.3,0.8-5.3,0.8&#10;&#9;&#9;c-1.6,0-3.2-0.2-4.6-0.6c-1.5-0.4-2.7-1-3.8-1.8c-1.1-0.8-1.9-2-2.5-3.3C1500.1,330.8,1499.8,329.1,1499.8,327.1z" fill="#4D6022"/>
	<path d="M1546.8,337.9c-2.1,0-4-0.4-5.6-1.2s-3-2-4.1-3.7c-1.1-1.7-2-3.8-2.5-6.4c-0.6-2.6-0.9-5.7-0.9-9.4V308&#10;&#9;&#9;c0-3.1,0.2-5.8,0.7-8c0.5-2.2,1.1-4.1,1.8-5.6c0.7-1.5,1.6-2.7,2.6-3.6c1-0.9,2-1.6,3-2c1-0.5,2.1-0.8,3.1-0.9c1-0.1,2-0.2,2.9-0.2&#10;&#9;&#9;c1.6,0,3.2,0.2,4.7,0.7c1.5,0.5,2.8,1.3,4,2.5c1.1,1.2,2,2.8,2.7,4.7c0.7,2,1,4.4,1,7.4c0,1,0,2-0.1,3c-0.1,1-0.1,2-0.2,3&#10;&#9;&#9;c-0.1,1-0.2,1.9-0.4,2.9s-0.3,1.8-0.5,2.6h-16.3v5c0,2.1,0.1,3.9,0.2,5.4c0.2,1.5,0.4,2.6,0.8,3.5c0.4,0.9,0.9,1.5,1.6,1.9&#10;&#9;&#9;c0.7,0.4,1.5,0.6,2.5,0.6c0.5,0,1.1-0.1,1.6-0.3c0.5-0.2,1-0.6,1.4-1.1c0.4-0.5,0.7-1.2,0.9-2.1c0.2-0.9,0.4-1.9,0.4-3.2v-1.5h7.5&#10;&#9;&#9;v1.9c0,4.7-1.1,8.1-3.3,10.2C1554.2,336.8,1551,337.9,1546.8,337.9z M1551.8,308.5c0-0.3,0-0.6,0.1-1.1c0-0.4,0-0.9,0.1-1.4&#10;&#9;&#9;c0-0.5,0-0.9,0-1.4c0-0.5,0-0.9,0-1.2c0-3.2-0.4-5.6-1.1-7c-0.8-1.4-1.9-2.1-3.4-2.1c-0.8,0-1.5,0.2-2.1,0.6&#10;&#9;&#9;c-0.6,0.4-1.1,1-1.5,1.9c-0.4,0.9-0.7,2-0.9,3.4c-0.2,1.4-0.3,3.2-0.3,5.3v3H1551.8z" fill="#4D6022"/>
	<path d="M1569.5,327.1c0-1.1,0.1-2.1,0.3-3.1s0.4-1.8,0.6-2.4h6.3c0,1.8,0.1,3.3,0.3,4.5c0.2,1.2,0.5,2.2,0.9,2.9&#10;&#9;&#9;c0.4,0.7,0.9,1.2,1.6,1.5c0.7,0.3,1.5,0.5,2.5,0.5c1.4,0,2.3-0.4,3-1.1c0.6-0.8,0.9-1.6,0.9-2.6c0-0.5-0.1-1-0.2-1.5&#10;&#9;&#9;c-0.1-0.5-0.3-1-0.6-1.4c-0.3-0.5-0.6-1-1-1.5s-0.8-1-1.3-1.6l-6.6-7.8c-0.9-1.1-1.7-2.2-2.5-3.3c-0.8-1.1-1.5-2.2-2.1-3.4&#10;&#9;&#9;c-0.6-1.2-1.1-2.4-1.5-3.7s-0.6-2.6-0.6-4.1c0-1.9,0.3-3.6,1-5c0.7-1.4,1.5-2.6,2.6-3.5c1.1-0.9,2.4-1.6,3.8-2.1&#10;&#9;&#9;c1.4-0.5,3-0.7,4.6-0.7c1.8,0,3.4,0.2,4.8,0.6s2.6,1.1,3.7,1.9c1,0.9,1.8,1.9,2.4,3.2c0.5,1.3,0.8,2.8,0.8,4.4&#10;&#9;&#9;c0,1.1-0.1,2.2-0.3,3.3c-0.2,1.1-0.4,2-0.6,2.7h-6.2c0-1.6-0.1-3-0.2-4.2c-0.1-1.2-0.3-2.2-0.7-3c-0.3-0.8-0.8-1.4-1.3-1.8&#10;&#9;&#9;c-0.6-0.4-1.3-0.6-2.2-0.6c-0.8,0-1.4,0.1-2,0.4c-0.5,0.2-0.9,0.6-1.3,1c-0.3,0.4-0.5,0.9-0.7,1.4c-0.1,0.5-0.2,1-0.2,1.5&#10;&#9;&#9;c0,1.1,0.3,2.2,0.8,3.2c0.5,1,1.3,2,2.2,3.2l7.2,8.4c0.5,0.6,1.1,1.4,1.8,2.3c0.7,0.9,1.3,1.9,2,3c0.6,1.1,1.1,2.3,1.6,3.6&#10;&#9;&#9;c0.4,1.3,0.6,2.7,0.6,4.1c0,1.7-0.3,3.3-0.8,4.7c-0.5,1.4-1.4,2.6-2.4,3.6c-1.1,1-2.4,1.8-3.9,2.3s-3.3,0.8-5.3,0.8&#10;&#9;&#9;c-1.6,0-3.2-0.2-4.6-0.6c-1.5-0.4-2.7-1-3.8-1.8c-1.1-0.8-1.9-2-2.5-3.3C1569.8,330.8,1569.5,329.1,1569.5,327.1z" fill="#4D6022"/>
	<path d="M1606.8,331.1c0-2.5,0.5-4.3,1.5-5.4c1-1.1,2.4-1.6,4.1-1.6c1.8,0,3.2,0.6,4.1,1.7c1,1.1,1.5,2.9,1.5,5.3&#10;&#9;&#9;c0,2.2-0.5,3.8-1.5,5c-1,1.2-2.4,1.8-4.2,1.8c-1.7,0-3-0.6-4-1.7C1607.3,335,1606.8,333.3,1606.8,331.1z M1607.4,272.8h9.7&#10;&#9;&#9;l-1.1,44.8h-7.4L1607.4,272.8z" fill="#4D6022"/>
</g>
</svg>